<?xml version="1.0"?>
<!DOCTYPE svg PUBLIC "-//W3C//DTD SVG 1.1//EN" "http://www.w3.org/Graphics/SVG/1.1/DTD/svg11.dtd">
<svg xmlns="http://www.w3.org/2000/svg" version="1.1" width="922.5" height="1027.5">
<defs>
<marker id="arrowStart" markerWidth="3.75" markerHeight="3.75" markerUnits="px" refX="1.875" refY="1.875">
<circle fill="Black" stroke-width="0" cx="1.875" cy="1.875" r="1.875" />
</marker>
<marker id="arrowEnd" markerWidth="7.5" markerHeight="7.5" markerUnits="px" refX="7.5" refY="3.75">
<polygon fill="Black" stroke-width="0" points="0 0 7.5 3.75 0 7.5" />
</marker>
</defs>
<g>
<g>
<rect fill="LightGreen" stroke="Black" stroke-width="1.875" x="7.5" y="7.5" width="82.5" height="71.25" rx="3.75" ry="3.75" />
<text x="15" y="30">Breast</text>
<text x="15" y="48.75">Radiology</text>
<text x="15" y="67.5">Report</text>
</g>
<line stroke="Black" stroke-width="1.875" marker-start="url(#arrowStart)" x1="90" y1="43.125" x2="120" y2="43.125" />
<line stroke="Black" stroke-width="1.875" marker-end="url(#arrowEnd)" x1="120" y1="24.375" x2="150" y2="24.375" />
<line stroke="Black" stroke-width="1.875" marker-end="url(#arrowEnd)" x1="120" y1="65.625" x2="150" y2="65.625" />
<line stroke="Black" stroke-width="1.875" marker-end="url(#arrowEnd)" x1="120" y1="106.875" x2="150" y2="106.875" />
<line stroke="Black" stroke-width="1.875" marker-end="url(#arrowEnd)" x1="120" y1="148.125" x2="150" y2="148.125" />
<line stroke="Black" stroke-width="1.875" marker-end="url(#arrowEnd)" x1="120" y1="978.75" x2="150" y2="978.75" />
<line stroke="Black" stroke-width="1.875" x1="120" y1="24.375" x2="120" y2="978.75" />
</g>
<g>
<g>
<rect fill="LightGreen" stroke="Black" stroke-width="1.875" x="150" y="7.5" width="127.5" height="33.75" rx="3.75" ry="3.75" />
<text x="157.5" y="30">Recommendations</text>
</g>
<g>
<rect fill="LightGreen" stroke="Black" stroke-width="1.875" x="150" y="48.75" width="112.5" height="33.75" rx="3.75" ry="3.75" />
<text x="157.5" y="71.25">Prior Reports</text>
</g>
<g>
<rect fill="LightGreen" stroke="Black" stroke-width="1.875" x="150" y="90" width="127.5" height="33.75" rx="3.75" ry="3.75" />
<text x="157.5" y="112.5">Patient History</text>
</g>
</g>
<g>
<g>
<rect fill="LightGreen" stroke="Black" stroke-width="1.875" x="150" y="131.25" width="75" height="33.75" rx="3.75" ry="3.75" />
<text x="157.5" y="153.75">Findings</text>
</g>
<line stroke="Black" stroke-width="1.875" marker-start="url(#arrowStart)" x1="225" y1="148.125" x2="255" y2="148.125" />
<line stroke="Black" stroke-width="1.875" marker-end="url(#arrowEnd)" x1="255" y1="148.125" x2="285" y2="148.125" />
<line stroke="Black" stroke-width="1.875" marker-end="url(#arrowEnd)" x1="255" y1="189.375" x2="285" y2="189.375" />
<line stroke="Black" stroke-width="1.875" x1="255" y1="148.125" x2="255" y2="189.375" />
</g>
<g>
<g>
<rect fill="LightGreen" stroke="Black" stroke-width="1.875" x="285" y="131.25" width="97.5" height="33.75" rx="3.75" ry="3.75" />
<text x="292.5" y="153.75">Left Breast</text>
</g>
<g>
<rect fill="LightGreen" stroke="Black" stroke-width="1.875" x="285" y="172.5" width="105" height="33.75" rx="3.75" ry="3.75" />
<text x="292.5" y="195">Right Breast</text>
</g>
<line stroke="Black" stroke-width="1.875" marker-start="url(#arrowStart)" x1="382.5" y1="148.125" x2="420" y2="148.125" />
<line stroke="Black" stroke-width="1.875" marker-start="url(#arrowStart)" x1="390" y1="189.375" x2="420" y2="189.375" />
<line stroke="Black" stroke-width="1.875" marker-end="url(#arrowEnd)" x1="420" y1="157.5" x2="450" y2="157.5" />
<line stroke="Black" stroke-width="1.875" marker-end="url(#arrowEnd)" x1="420" y1="858.75" x2="450" y2="858.75" />
<line stroke="Black" stroke-width="1.875" marker-end="url(#arrowEnd)" x1="420" y1="918.75" x2="450" y2="918.75" />
<line stroke="Black" stroke-width="1.875" x1="420" y1="148.125" x2="420" y2="918.75" />
</g>
<g>
<g>
<rect fill="LightGreen" stroke="Black" stroke-width="1.875" x="450" y="131.25" width="67.5" height="52.5" rx="3.75" ry="3.75" />
<text x="457.5" y="153.75">Mammo</text>
<text x="457.5" y="172.5">Finding</text>
</g>
<line stroke="Black" stroke-width="1.875" marker-start="url(#arrowStart)" x1="517.5" y1="157.5" x2="547.5" y2="157.5" />
<line stroke="Black" stroke-width="1.875" marker-end="url(#arrowEnd)" x1="547.5" y1="157.5" x2="577.5" y2="157.5" />
<line stroke="Black" stroke-width="1.875" marker-end="url(#arrowEnd)" x1="547.5" y1="208.125" x2="577.5" y2="208.125" />
<line stroke="Black" stroke-width="1.875" marker-end="url(#arrowEnd)" x1="547.5" y1="350.625" x2="577.5" y2="350.625" />
<line stroke="Black" stroke-width="1.875" marker-end="url(#arrowEnd)" x1="547.5" y1="480" x2="577.5" y2="480" />
<line stroke="Black" stroke-width="1.875" marker-end="url(#arrowEnd)" x1="547.5" y1="530.625" x2="577.5" y2="530.625" />
<line stroke="Black" stroke-width="1.875" marker-end="url(#arrowEnd)" x1="547.5" y1="590.625" x2="577.5" y2="590.625" />
<line stroke="Black" stroke-width="1.875" marker-end="url(#arrowEnd)" x1="547.5" y1="660" x2="577.5" y2="660" />
<line stroke="Black" stroke-width="1.875" marker-end="url(#arrowEnd)" x1="547.5" y1="720" x2="577.5" y2="720" />
<line stroke="Black" stroke-width="1.875" marker-end="url(#arrowEnd)" x1="547.5" y1="789.375" x2="577.5" y2="789.375" />
<line stroke="Black" stroke-width="1.875" x1="547.5" y1="157.5" x2="547.5" y2="789.375" />
</g>
<g>
<g>
<rect fill="LightGreen" stroke="Black" stroke-width="1.875" x="577.5" y="131.25" width="67.5" height="52.5" rx="3.75" ry="3.75" />
<text x="585" y="153.75">Breast</text>
<text x="585" y="172.5">Density</text>
</g>
</g>
<g>
<g>
<rect fill="LightGreen" stroke="Black" stroke-width="1.875" x="577.5" y="191.25" width="45" height="33.75" rx="3.75" ry="3.75" />
<text x="585" y="213.75">Mass</text>
</g>
<line stroke="Black" stroke-width="1.875" marker-start="url(#arrowStart)" x1="622.5" y1="208.125" x2="652.5" y2="208.125" />
<line stroke="Black" stroke-width="1.875" marker-end="url(#arrowEnd)" x1="652.5" y1="208.125" x2="682.5" y2="208.125" />
<line stroke="Black" stroke-width="1.875" marker-end="url(#arrowEnd)" x1="652.5" y1="258.75" x2="682.5" y2="258.75" />
<line stroke="Black" stroke-width="1.875" marker-end="url(#arrowEnd)" x1="652.5" y1="309.375" x2="682.5" y2="309.375" />
<line stroke="Black" stroke-width="1.875" x1="652.5" y1="208.125" x2="652.5" y2="309.375" />
</g>
<g>
<g>
<rect fill="LightGreen" stroke="Black" stroke-width="1.875" x="682.5" y="191.25" width="52.5" height="33.75" rx="3.75" ry="3.75" />
<text x="690" y="213.75">Shape</text>
</g>
<g>
<rect fill="LightGreen" stroke="Black" stroke-width="1.875" x="682.5" y="232.5" width="60" height="52.5" rx="3.75" ry="3.75" />
<text x="690" y="255">Mass</text>
<text x="690" y="273.75">Margin</text>
</g>
<g>
<rect fill="LightGreen" stroke="Black" stroke-width="1.875" x="682.5" y="292.5" width="67.5" height="33.75" rx="3.75" ry="3.75" />
<text x="690" y="315">Density</text>
</g>
</g>
<g>
<g>
<rect fill="LightGreen" stroke="Black" stroke-width="1.875" x="577.5" y="333.75" width="112.5" height="33.75" rx="3.75" ry="3.75" />
<text x="585" y="356.25">Calcification</text>
</g>
<line stroke="Black" stroke-width="1.875" marker-start="url(#arrowStart)" x1="690" y1="350.625" x2="720" y2="350.625" />
<line stroke="Black" stroke-width="1.875" marker-end="url(#arrowEnd)" x1="720" y1="360" x2="750" y2="360" />
<line stroke="Black" stroke-width="1.875" marker-end="url(#arrowEnd)" x1="720" y1="420" x2="750" y2="420" />
<line stroke="Black" stroke-width="1.875" x1="720" y1="350.625" x2="720" y2="420" />
</g>
<g>
<g>
<rect fill="LightGreen" stroke="Black" stroke-width="1.875" x="750" y="333.75" width="112.5" height="52.5" rx="3.75" ry="3.75" />
<text x="757.5" y="356.25">Calcification</text>
<text x="757.5" y="375">Type</text>
</g>
<g>
<rect fill="LightGreen" stroke="Black" stroke-width="1.875" x="750" y="393.75" width="112.5" height="52.5" rx="3.75" ry="3.75" />
<text x="757.5" y="416.25">Calcification</text>
<text x="757.5" y="435">Distribution</text>
</g>
</g>
<g>
<g>
<rect fill="LightGreen" stroke="Black" stroke-width="1.875" x="577.5" y="453.75" width="90" height="52.5" rx="3.75" ry="3.75" />
<text x="585" y="476.25">Arch.</text>
<text x="585" y="495">Distortion</text>
</g>
<g>
<rect fill="LightGreen" stroke="Black" stroke-width="1.875" x="577.5" y="513.75" width="97.5" height="33.75" rx="3.75" ry="3.75" />
<text x="585" y="536.25">Asymmetries</text>
</g>
<g>
<rect fill="LightGreen" stroke="Black" stroke-width="1.875" x="577.5" y="555" width="105" height="71.25" rx="3.75" ry="3.75" />
<text x="585" y="577.5">Intramammory</text>
<text x="585" y="596.25">Lymph</text>
<text x="585" y="615">Node</text>
</g>
<g>
<rect fill="LightGreen" stroke="Black" stroke-width="1.875" x="577.5" y="633.75" width="60" height="52.5" rx="3.75" ry="3.75" />
<text x="585" y="656.25">Skin</text>
<text x="585" y="675">Lesion</text>
</g>
<g>
<rect fill="LightGreen" stroke="Black" stroke-width="1.875" x="577.5" y="693.75" width="75" height="52.5" rx="3.75" ry="3.75" />
<text x="585" y="716.25">Dialated</text>
<text x="585" y="735">Duct</text>
</g>
<g>
<rect fill="LightGreen" stroke="Black" stroke-width="1.875" x="577.5" y="753.75" width="90" height="71.25" rx="3.75" ry="3.75" />
<text x="585" y="776.25">Mammo</text>
<text x="585" y="795">Associated</text>
<text x="585" y="813.75">Features</text>
</g>
</g>
<g>
<g>
<rect fill="LightGreen" stroke="Black" stroke-width="1.875" x="450" y="832.5" width="97.5" height="52.5" rx="3.75" ry="3.75" />
<text x="457.5" y="855">MRI</text>
<text x="457.5" y="873.75">Abnormality</text>
</g>
<g>
<rect fill="LightGreen" stroke="Black" stroke-width="1.875" x="450" y="892.5" width="97.5" height="52.5" rx="3.75" ry="3.75" />
<text x="457.5" y="915">UltraSound</text>
<text x="457.5" y="933.75">Abnormality</text>
</g>
</g>
<g>
<g>
<rect fill="LightGreen" stroke="Black" stroke-width="1.875" x="150" y="952.5" width="67.5" height="52.5" rx="3.75" ry="3.75" />
<text x="157.5" y="975">Patient</text>
<text x="157.5" y="993.75">Risk</text>
</g>
</g>
</svg>
