<?xml version="1.0"?>
<!DOCTYPE svg PUBLIC "-//W3C//DTD SVG 1.1//EN" "http://www.w3.org/Graphics/SVG/1.1/DTD/svg11.dtd">
<svg xmlns="http://www.w3.org/2000/svg" version="1.1" width="952.5" height="892.5">
<defs>
<marker id="arrowStart" markerWidth="3.75" markerHeight="3.75" markerUnits="px" refX="1.875" refY="1.875">
<circle fill="Black" stroke-width="0" cx="1.875" cy="1.875" r="1.875" />
</marker>
<marker id="arrowEnd" markerWidth="7.5" markerHeight="7.5" markerUnits="px" refX="7.5" refY="3.75">
<polygon fill="Black" stroke-width="0" points="0 0 7.5 3.75 0 7.5" />
</marker>
</defs>
<g>
<g>
<rect fill="LightGreen" stroke="Black" stroke-width="1.875" x="7.5" y="7.5" width="82.5" height="71.25" rx="3.75" ry="3.75" />
<text x="15" y="30">Breast</text>
<text x="15" y="48.75">Radiology</text>
<text x="15" y="67.5">Report</text>
</g>
<line stroke="Black" stroke-width="1.875" marker-start="url(#arrowStart)" x1="90" y1="43.125" x2="120" y2="43.125" />
<line stroke="Black" stroke-width="1.875" marker-end="url(#arrowEnd)" x1="120" y1="24.375" x2="150" y2="24.375" />
<line stroke="Black" stroke-width="1.875" marker-end="url(#arrowEnd)" x1="120" y1="65.625" x2="150" y2="65.625" />
<line stroke="Black" stroke-width="1.875" marker-end="url(#arrowEnd)" x1="120" y1="106.875" x2="150" y2="106.875" />
<line stroke="Black" stroke-width="1.875" marker-end="url(#arrowEnd)" x1="120" y1="148.125" x2="150" y2="148.125" />
<line stroke="Black" stroke-width="1.875" marker-end="url(#arrowEnd)" x1="120" y1="843.75" x2="150" y2="843.75" />
<line stroke="Black" stroke-width="1.875" x1="120" y1="24.375" x2="120" y2="843.75" />
</g>
<g>
<g>
<rect fill="LightGreen" stroke="Black" stroke-width="1.875" x="150" y="7.5" width="127.5" height="33.75" rx="3.75" ry="3.75" />
<text x="157.5" y="30">Recommendations</text>
</g>
<g>
<rect fill="LightGreen" stroke="Black" stroke-width="1.875" x="150" y="48.75" width="112.5" height="33.75" rx="3.75" ry="3.75" />
<text x="157.5" y="71.25">Prior Reports</text>
</g>
<g>
<rect fill="LightGreen" stroke="Black" stroke-width="1.875" x="150" y="90" width="127.5" height="33.75" rx="3.75" ry="3.75" />
<text x="157.5" y="112.5">Patient History</text>
</g>
</g>
<g>
<g>
<rect fill="LightGreen" stroke="Black" stroke-width="1.875" x="150" y="131.25" width="75" height="33.75" rx="3.75" ry="3.75" />
<text x="157.5" y="153.75">Findings</text>
</g>
<line stroke="Black" stroke-width="1.875" marker-start="url(#arrowStart)" x1="225" y1="148.125" x2="255" y2="148.125" />
<line stroke="Black" stroke-width="1.875" marker-end="url(#arrowEnd)" x1="255" y1="148.125" x2="285" y2="148.125" />
<line stroke="Black" stroke-width="1.875" marker-end="url(#arrowEnd)" x1="255" y1="189.375" x2="285" y2="189.375" />
<line stroke="Black" stroke-width="1.875" x1="255" y1="148.125" x2="255" y2="189.375" />
</g>
<g>
<g>
<rect fill="LightGreen" stroke="Black" stroke-width="1.875" x="285" y="131.25" width="97.5" height="33.75" rx="3.75" ry="3.75" />
<text x="292.5" y="153.75">Left Breast</text>
</g>
<g>
<rect fill="LightGreen" stroke="Black" stroke-width="1.875" x="285" y="172.5" width="105" height="33.75" rx="3.75" ry="3.75" />
<text x="292.5" y="195">Right Breast</text>
</g>
<line stroke="Black" stroke-width="1.875" marker-start="url(#arrowStart)" x1="382.5" y1="148.125" x2="420" y2="148.125" />
<line stroke="Black" stroke-width="1.875" marker-start="url(#arrowStart)" x1="390" y1="189.375" x2="420" y2="189.375" />
<line stroke="Black" stroke-width="1.875" marker-end="url(#arrowEnd)" x1="420" y1="157.5" x2="450" y2="157.5" />
<line stroke="Black" stroke-width="1.875" marker-end="url(#arrowEnd)" x1="420" y1="723.75" x2="450" y2="723.75" />
<line stroke="Black" stroke-width="1.875" marker-end="url(#arrowEnd)" x1="420" y1="783.75" x2="450" y2="783.75" />
<line stroke="Black" stroke-width="1.875" x1="420" y1="148.125" x2="420" y2="783.75" />
</g>
<g>
<g>
<rect fill="LightGreen" stroke="Black" stroke-width="1.875" x="450" y="131.25" width="97.5" height="52.5" rx="3.75" ry="3.75" />
<text x="457.5" y="153.75">Mammo</text>
<text x="457.5" y="172.5">Abnormality</text>
</g>
<line stroke="Black" stroke-width="1.875" marker-start="url(#arrowStart)" x1="547.5" y1="157.5" x2="577.5" y2="157.5" />
<line stroke="Black" stroke-width="1.875" marker-end="url(#arrowEnd)" x1="577.5" y1="157.5" x2="607.5" y2="157.5" />
<line stroke="Black" stroke-width="1.875" marker-end="url(#arrowEnd)" x1="577.5" y1="208.125" x2="607.5" y2="208.125" />
<line stroke="Black" stroke-width="1.875" marker-end="url(#arrowEnd)" x1="577.5" y1="331.875" x2="607.5" y2="331.875" />
<line stroke="Black" stroke-width="1.875" marker-end="url(#arrowEnd)" x1="577.5" y1="423.75" x2="607.5" y2="423.75" />
<line stroke="Black" stroke-width="1.875" marker-end="url(#arrowEnd)" x1="577.5" y1="474.375" x2="607.5" y2="474.375" />
<line stroke="Black" stroke-width="1.875" marker-end="url(#arrowEnd)" x1="577.5" y1="534.375" x2="607.5" y2="534.375" />
<line stroke="Black" stroke-width="1.875" marker-end="url(#arrowEnd)" x1="577.5" y1="603.75" x2="607.5" y2="603.75" />
<line stroke="Black" stroke-width="1.875" marker-end="url(#arrowEnd)" x1="577.5" y1="663.75" x2="607.5" y2="663.75" />
<line stroke="Black" stroke-width="1.875" x1="577.5" y1="157.5" x2="577.5" y2="663.75" />
</g>
<g>
<g>
<rect fill="LightGreen" stroke="Black" stroke-width="1.875" x="607.5" y="131.25" width="67.5" height="52.5" rx="3.75" ry="3.75" />
<text x="615" y="153.75">Breast</text>
<text x="615" y="172.5">Density</text>
</g>
</g>
<g>
<g>
<rect fill="LightGreen" stroke="Black" stroke-width="1.875" x="607.5" y="191.25" width="45" height="33.75" rx="3.75" ry="3.75" />
<text x="615" y="213.75">Mass</text>
</g>
<line stroke="Black" stroke-width="1.875" marker-start="url(#arrowStart)" x1="652.5" y1="208.125" x2="682.5" y2="208.125" />
<line stroke="Black" stroke-width="1.875" marker-end="url(#arrowEnd)" x1="682.5" y1="208.125" x2="712.5" y2="208.125" />
<line stroke="Black" stroke-width="1.875" marker-end="url(#arrowEnd)" x1="682.5" y1="249.375" x2="712.5" y2="249.375" />
<line stroke="Black" stroke-width="1.875" marker-end="url(#arrowEnd)" x1="682.5" y1="290.625" x2="712.5" y2="290.625" />
<line stroke="Black" stroke-width="1.875" x1="682.5" y1="208.125" x2="682.5" y2="290.625" />
</g>
<g>
<g>
<rect fill="LightGreen" stroke="Black" stroke-width="1.875" x="712.5" y="191.25" width="52.5" height="33.75" rx="3.75" ry="3.75" />
<text x="720" y="213.75">Shape</text>
</g>
<g>
<rect fill="LightGreen" stroke="Black" stroke-width="1.875" x="712.5" y="232.5" width="60" height="33.75" rx="3.75" ry="3.75" />
<text x="720" y="255">Margin</text>
</g>
<g>
<rect fill="LightGreen" stroke="Black" stroke-width="1.875" x="712.5" y="273.75" width="67.5" height="33.75" rx="3.75" ry="3.75" />
<text x="720" y="296.25">Density</text>
</g>
</g>
<g>
<g>
<rect fill="LightGreen" stroke="Black" stroke-width="1.875" x="607.5" y="315" width="120" height="33.75" rx="3.75" ry="3.75" />
<text x="615" y="337.5">Calcifications</text>
</g>
<line stroke="Black" stroke-width="1.875" marker-start="url(#arrowStart)" x1="727.5" y1="331.875" x2="757.5" y2="331.875" />
<line stroke="Black" stroke-width="1.875" marker-end="url(#arrowEnd)" x1="757.5" y1="331.875" x2="787.5" y2="331.875" />
<line stroke="Black" stroke-width="1.875" marker-end="url(#arrowEnd)" x1="757.5" y1="373.125" x2="787.5" y2="373.125" />
<line stroke="Black" stroke-width="1.875" x1="757.5" y1="331.875" x2="757.5" y2="373.125" />
</g>
<g>
<g>
<rect fill="LightGreen" stroke="Black" stroke-width="1.875" x="787.5" y="315" width="45" height="33.75" rx="3.75" ry="3.75" />
<text x="795" y="337.5">Type</text>
</g>
<g>
<rect fill="LightGreen" stroke="Black" stroke-width="1.875" x="787.5" y="356.25" width="105" height="33.75" rx="3.75" ry="3.75" />
<text x="795" y="378.75">Distribution</text>
</g>
</g>
<g>
<g>
<rect fill="LightGreen" stroke="Black" stroke-width="1.875" x="607.5" y="397.5" width="90" height="52.5" rx="3.75" ry="3.75" />
<text x="615" y="420">Arch.</text>
<text x="615" y="438.75">Distortion</text>
</g>
<g>
<rect fill="LightGreen" stroke="Black" stroke-width="1.875" x="607.5" y="457.5" width="90" height="33.75" rx="3.75" ry="3.75" />
<text x="615" y="480">Asymetries</text>
</g>
<g>
<rect fill="LightGreen" stroke="Black" stroke-width="1.875" x="607.5" y="498.75" width="105" height="71.25" rx="3.75" ry="3.75" />
<text x="615" y="521.25">Intramammory</text>
<text x="615" y="540">Lymph</text>
<text x="615" y="558.75">Node</text>
</g>
<g>
<rect fill="LightGreen" stroke="Black" stroke-width="1.875" x="607.5" y="577.5" width="60" height="52.5" rx="3.75" ry="3.75" />
<text x="615" y="600">Skin</text>
<text x="615" y="618.75">Lesion</text>
</g>
<g>
<rect fill="LightGreen" stroke="Black" stroke-width="1.875" x="607.5" y="637.5" width="75" height="52.5" rx="3.75" ry="3.75" />
<text x="615" y="660">Dialated</text>
<text x="615" y="678.75">Duct</text>
</g>
</g>
<g>
<g>
<rect fill="LightGreen" stroke="Black" stroke-width="1.875" x="450" y="697.5" width="97.5" height="52.5" rx="3.75" ry="3.75" />
<text x="457.5" y="720">MRI</text>
<text x="457.5" y="738.75">Abnormality</text>
</g>
<g>
<rect fill="LightGreen" stroke="Black" stroke-width="1.875" x="450" y="757.5" width="97.5" height="52.5" rx="3.75" ry="3.75" />
<text x="457.5" y="780">UltraSound</text>
<text x="457.5" y="798.75">Abnormality</text>
</g>
</g>
<g>
<g>
<rect fill="LightGreen" stroke="Black" stroke-width="1.875" x="150" y="817.5" width="67.5" height="52.5" rx="3.75" ry="3.75" />
<text x="157.5" y="840">Patient</text>
<text x="157.5" y="858.75">Risk</text>
</g>
</g>
</svg>
