<?xml version="1.0"?>
<!DOCTYPE svg PUBLIC "-//W3C//DTD SVG 1.1//EN" "http://www.w3.org/Graphics/SVG/1.1/DTD/svg11.dtd">
<svg xmlns="http://www.w3.org/2000/svg" version="1.1" width="1072.5" height="1623.75">
<defs>
<marker id="arrowStart" markerWidth="3.75" markerHeight="3.75" markerUnits="px" refX="1.875" refY="1.875">
<circle fill="Black" stroke-width="0" cx="1.875" cy="1.875" r="1.875" />
</marker>
<marker id="arrowEnd" markerWidth="7.5" markerHeight="7.5" markerUnits="px" refX="7.5" refY="3.75">
<polygon fill="Black" stroke-width="0" points="0 0 7.5 3.75 0 7.5" />
</marker>
</defs>
<g>
<g>
<rect fill="LightGreen" stroke="Black" stroke-width="1.875" x="7.5" y="7.5" width="82.5" height="71.25" rx="3.75" ry="3.75" />
<text x="15" y="30">Breast</text>
<text x="15" y="48.75">Radiology</text>
<text x="15" y="67.5">Report</text>
</g>
<line stroke="Black" stroke-width="1.875" marker-start="url(#arrowStart)" x1="90" y1="43.125" x2="120" y2="43.125" />
<line stroke="Black" stroke-width="1.875" marker-end="url(#arrowEnd)" x1="120" y1="24.375" x2="150" y2="24.375" />
<line stroke="Black" stroke-width="1.875" marker-end="url(#arrowEnd)" x1="120" y1="65.625" x2="150" y2="65.625" />
<line stroke="Black" stroke-width="1.875" marker-end="url(#arrowEnd)" x1="120" y1="106.875" x2="150" y2="106.875" />
<line stroke="Black" stroke-width="1.875" marker-end="url(#arrowEnd)" x1="120" y1="148.125" x2="150" y2="148.125" />
<line stroke="Black" stroke-width="1.875" marker-end="url(#arrowEnd)" x1="120" y1="1575" x2="150" y2="1575" />
<line stroke="Black" stroke-width="1.875" x1="120" y1="24.375" x2="120" y2="1575" />
</g>
<g>
<g>
<rect fill="LightGreen" stroke="Black" stroke-width="1.875" x="150" y="7.5" width="127.5" height="33.75" rx="3.75" ry="3.75" />
<text x="157.5" y="30">Recommendations</text>
</g>
<g>
<rect fill="LightGreen" stroke="Black" stroke-width="1.875" x="150" y="48.75" width="112.5" height="33.75" rx="3.75" ry="3.75" />
<text x="157.5" y="71.25">Prior Reports</text>
</g>
<g>
<rect fill="LightGreen" stroke="Black" stroke-width="1.875" x="150" y="90" width="127.5" height="33.75" rx="3.75" ry="3.75" />
<text x="157.5" y="112.5">Patient History</text>
</g>
</g>
<g>
<g>
<rect fill="LightGreen" stroke="Black" stroke-width="1.875" x="150" y="131.25" width="75" height="33.75" rx="3.75" ry="3.75" />
<text x="157.5" y="153.75">Findings</text>
</g>
<line stroke="Black" stroke-width="1.875" marker-start="url(#arrowStart)" x1="225" y1="148.125" x2="255" y2="148.125" />
<line stroke="Black" stroke-width="1.875" marker-end="url(#arrowEnd)" x1="255" y1="148.125" x2="285" y2="148.125" />
<line stroke="Black" stroke-width="1.875" marker-end="url(#arrowEnd)" x1="255" y1="189.375" x2="285" y2="189.375" />
<line stroke="Black" stroke-width="1.875" x1="255" y1="148.125" x2="255" y2="189.375" />
</g>
<g>
<g>
<rect fill="LightGreen" stroke="Black" stroke-width="1.875" x="285" y="131.25" width="97.5" height="33.75" rx="3.75" ry="3.75" />
<text x="292.5" y="153.75">Left Breast</text>
</g>
<g>
<rect fill="LightGreen" stroke="Black" stroke-width="1.875" x="285" y="172.5" width="105" height="33.75" rx="3.75" ry="3.75" />
<text x="292.5" y="195">Right Breast</text>
</g>
<line stroke="Black" stroke-width="1.875" marker-start="url(#arrowStart)" x1="382.5" y1="148.125" x2="420" y2="148.125" />
<line stroke="Black" stroke-width="1.875" marker-start="url(#arrowStart)" x1="390" y1="189.375" x2="420" y2="189.375" />
<line stroke="Black" stroke-width="1.875" marker-end="url(#arrowEnd)" x1="420" y1="157.5" x2="450" y2="157.5" />
<line stroke="Black" stroke-width="1.875" marker-end="url(#arrowEnd)" x1="420" y1="1473.75" x2="450" y2="1473.75" />
<line stroke="Black" stroke-width="1.875" marker-end="url(#arrowEnd)" x1="420" y1="1524.375" x2="450" y2="1524.375" />
<line stroke="Black" stroke-width="1.875" x1="420" y1="148.125" x2="420" y2="1524.375" />
</g>
<g>
<g>
<rect fill="LightGreen" stroke="Black" stroke-width="1.875" x="450" y="131.25" width="67.5" height="52.5" rx="3.75" ry="3.75" />
<text x="457.5" y="153.75">Mammo</text>
<text x="457.5" y="172.5">Finding</text>
</g>
<line stroke="Black" stroke-width="1.875" marker-start="url(#arrowStart)" x1="517.5" y1="157.5" x2="547.5" y2="157.5" />
<line stroke="Black" stroke-width="1.875" marker-end="url(#arrowEnd)" x1="547.5" y1="157.5" x2="577.5" y2="157.5" />
<line stroke="Black" stroke-width="1.875" marker-end="url(#arrowEnd)" x1="547.5" y1="208.125" x2="577.5" y2="208.125" />
<line stroke="Black" stroke-width="1.875" marker-end="url(#arrowEnd)" x1="547.5" y1="429.375" x2="577.5" y2="429.375" />
<line stroke="Black" stroke-width="1.875" marker-end="url(#arrowEnd)" x1="547.5" y1="637.5" x2="577.5" y2="637.5" />
<line stroke="Black" stroke-width="1.875" marker-end="url(#arrowEnd)" x1="547.5" y1="688.125" x2="577.5" y2="688.125" />
<line stroke="Black" stroke-width="1.875" marker-end="url(#arrowEnd)" x1="547.5" y1="785.625" x2="577.5" y2="785.625" />
<line stroke="Black" stroke-width="1.875" marker-end="url(#arrowEnd)" x1="547.5" y1="855" x2="577.5" y2="855" />
<line stroke="Black" stroke-width="1.875" marker-end="url(#arrowEnd)" x1="547.5" y1="915" x2="577.5" y2="915" />
<line stroke="Black" stroke-width="1.875" marker-end="url(#arrowEnd)" x1="547.5" y1="984.375" x2="577.5" y2="984.375" />
<line stroke="Black" stroke-width="1.875" x1="547.5" y1="157.5" x2="547.5" y2="984.375" />
</g>
<g>
<g>
<rect fill="LightGreen" stroke="Black" stroke-width="1.875" x="577.5" y="131.25" width="67.5" height="52.5" rx="3.75" ry="3.75" />
<text x="585" y="153.75">Breast</text>
<text x="585" y="172.5">Density</text>
</g>
</g>
<g>
<g>
<rect fill="LightGreen" stroke="Black" stroke-width="1.875" x="577.5" y="191.25" width="45" height="33.75" rx="3.75" ry="3.75" />
<text x="585" y="213.75">Mass</text>
</g>
<line stroke="Black" stroke-width="1.875" marker-start="url(#arrowStart)" x1="622.5" y1="208.125" x2="652.5" y2="208.125" />
<line stroke="Black" stroke-width="1.875" marker-end="url(#arrowEnd)" x1="652.5" y1="208.125" x2="682.5" y2="208.125" />
<line stroke="Black" stroke-width="1.875" marker-end="url(#arrowEnd)" x1="652.5" y1="258.75" x2="682.5" y2="258.75" />
<line stroke="Black" stroke-width="1.875" marker-end="url(#arrowEnd)" x1="652.5" y1="309.375" x2="682.5" y2="309.375" />
<line stroke="Black" stroke-width="1.875" marker-end="url(#arrowEnd)" x1="652.5" y1="369.375" x2="682.5" y2="369.375" />
<line stroke="Black" stroke-width="1.875" x1="652.5" y1="208.125" x2="652.5" y2="369.375" />
</g>
<g>
<g>
<rect fill="LightGreen" stroke="Black" stroke-width="1.875" x="682.5" y="191.25" width="52.5" height="33.75" rx="3.75" ry="3.75" />
<text x="690" y="213.75">Shape</text>
</g>
<g>
<rect fill="LightGreen" stroke="Black" stroke-width="1.875" x="682.5" y="232.5" width="60" height="52.5" rx="3.75" ry="3.75" />
<text x="690" y="255">Mass</text>
<text x="690" y="273.75">Margin</text>
</g>
<g>
<rect fill="LightGreen" stroke="Black" stroke-width="1.875" x="682.5" y="292.5" width="67.5" height="33.75" rx="3.75" ry="3.75" />
<text x="690" y="315">Density</text>
</g>
</g>
<g>
<g>
<rect fill="LightGreen" stroke="Black" stroke-width="1.875" x="682.5" y="333.75" width="90" height="71.25" rx="3.75" ry="3.75" />
<text x="690" y="356.25">Mammo</text>
<text x="690" y="375">Associated</text>
<text x="690" y="393.75">Features</text>
</g>
</g>
<g>
<g>
<rect fill="LightGreen" stroke="Black" stroke-width="1.875" x="577.5" y="412.5" width="112.5" height="33.75" rx="3.75" ry="3.75" />
<text x="585" y="435">Calcification</text>
</g>
<line stroke="Black" stroke-width="1.875" marker-start="url(#arrowStart)" x1="690" y1="429.375" x2="720" y2="429.375" />
<line stroke="Black" stroke-width="1.875" marker-end="url(#arrowEnd)" x1="720" y1="438.75" x2="750" y2="438.75" />
<line stroke="Black" stroke-width="1.875" marker-end="url(#arrowEnd)" x1="720" y1="498.75" x2="750" y2="498.75" />
<line stroke="Black" stroke-width="1.875" marker-end="url(#arrowEnd)" x1="720" y1="568.125" x2="750" y2="568.125" />
<line stroke="Black" stroke-width="1.875" x1="720" y1="429.375" x2="720" y2="568.125" />
</g>
<g>
<g>
<rect fill="LightGreen" stroke="Black" stroke-width="1.875" x="750" y="412.5" width="112.5" height="52.5" rx="3.75" ry="3.75" />
<text x="757.5" y="435">Calcification</text>
<text x="757.5" y="453.75">Type</text>
</g>
<g>
<rect fill="LightGreen" stroke="Black" stroke-width="1.875" x="750" y="472.5" width="112.5" height="52.5" rx="3.75" ry="3.75" />
<text x="757.5" y="495">Calcification</text>
<text x="757.5" y="513.75">Distribution</text>
</g>
</g>
<g>
<g>
<rect fill="LightGreen" stroke="Black" stroke-width="1.875" x="750" y="532.5" width="90" height="71.25" rx="3.75" ry="3.75" />
<text x="757.5" y="555">Mammo</text>
<text x="757.5" y="573.75">Associated</text>
<text x="757.5" y="592.5">Features</text>
</g>
</g>
<g>
<g>
<rect fill="LightGreen" stroke="Black" stroke-width="1.875" x="577.5" y="611.25" width="90" height="52.5" rx="3.75" ry="3.75" />
<text x="585" y="633.75">Arch.</text>
<text x="585" y="652.5">Distortion</text>
</g>
</g>
<g>
<g>
<rect fill="LightGreen" stroke="Black" stroke-width="1.875" x="577.5" y="671.25" width="97.5" height="33.75" rx="3.75" ry="3.75" />
<text x="585" y="693.75">Asymmetries</text>
</g>
<line stroke="Black" stroke-width="1.875" marker-start="url(#arrowStart)" x1="675" y1="688.125" x2="705" y2="688.125" />
<line stroke="Black" stroke-width="1.875" marker-end="url(#arrowEnd)" x1="705" y1="706.875" x2="735" y2="706.875" />
<line stroke="Black" stroke-width="1.875" x1="705" y1="688.125" x2="705" y2="706.875" />
</g>
<g>
<g>
<rect fill="LightGreen" stroke="Black" stroke-width="1.875" x="735" y="671.25" width="90" height="71.25" rx="3.75" ry="3.75" />
<text x="742.5" y="693.75">Mammo</text>
<text x="742.5" y="712.5">Associated</text>
<text x="742.5" y="731.25">Features</text>
</g>
</g>
<g>
<g>
<rect fill="LightGreen" stroke="Black" stroke-width="1.875" x="577.5" y="750" width="105" height="71.25" rx="3.75" ry="3.75" />
<text x="585" y="772.5">Intramammory</text>
<text x="585" y="791.25">Lymph</text>
<text x="585" y="810">Node</text>
</g>
<g>
<rect fill="LightGreen" stroke="Black" stroke-width="1.875" x="577.5" y="828.75" width="60" height="52.5" rx="3.75" ry="3.75" />
<text x="585" y="851.25">Skin</text>
<text x="585" y="870">Lesion</text>
</g>
<g>
<rect fill="LightGreen" stroke="Black" stroke-width="1.875" x="577.5" y="888.75" width="75" height="52.5" rx="3.75" ry="3.75" />
<text x="585" y="911.25">Dialated</text>
<text x="585" y="930">Duct</text>
</g>
</g>
<g>
<g>
<rect fill="LightGreen" stroke="Black" stroke-width="1.875" x="577.5" y="948.75" width="90" height="71.25" rx="3.75" ry="3.75" />
<text x="585" y="971.25">Mammo</text>
<text x="585" y="990">Associated</text>
<text x="585" y="1008.75">Features</text>
</g>
<line stroke="Black" stroke-width="1.875" marker-start="url(#arrowStart)" x1="667.5" y1="984.375" x2="697.5" y2="984.375" />
<line stroke="Black" stroke-width="1.875" marker-end="url(#arrowEnd)" x1="697.5" y1="975" x2="727.5" y2="975" />
<line stroke="Black" stroke-width="1.875" marker-end="url(#arrowEnd)" x1="697.5" y1="1035" x2="727.5" y2="1035" />
<line stroke="Black" stroke-width="1.875" marker-end="url(#arrowEnd)" x1="697.5" y1="1095" x2="727.5" y2="1095" />
<line stroke="Black" stroke-width="1.875" marker-end="url(#arrowEnd)" x1="697.5" y1="1155" x2="727.5" y2="1155" />
<line stroke="Black" stroke-width="1.875" marker-end="url(#arrowEnd)" x1="697.5" y1="1215" x2="727.5" y2="1215" />
<line stroke="Black" stroke-width="1.875" marker-end="url(#arrowEnd)" x1="697.5" y1="1265.625" x2="727.5" y2="1265.625" />
<line stroke="Black" stroke-width="1.875" x1="697.5" y1="975" x2="697.5" y2="1265.625" />
</g>
<g>
<g>
<rect fill="LightGreen" stroke="Black" stroke-width="1.875" x="727.5" y="948.75" width="90" height="52.5" rx="3.75" ry="3.75" />
<text x="735" y="971.25">Skin</text>
<text x="735" y="990">Retraction</text>
</g>
<g>
<rect fill="LightGreen" stroke="Black" stroke-width="1.875" x="727.5" y="1008.75" width="90" height="52.5" rx="3.75" ry="3.75" />
<text x="735" y="1031.25">Nipple</text>
<text x="735" y="1050">Retraction</text>
</g>
<g>
<rect fill="LightGreen" stroke="Black" stroke-width="1.875" x="727.5" y="1068.75" width="90" height="52.5" rx="3.75" ry="3.75" />
<text x="735" y="1091.25">Skin</text>
<text x="735" y="1110">Thickening</text>
</g>
<g>
<rect fill="LightGreen" stroke="Black" stroke-width="1.875" x="727.5" y="1128.75" width="90" height="52.5" rx="3.75" ry="3.75" />
<text x="735" y="1151.25">Axillary</text>
<text x="735" y="1170">Adenopathy</text>
</g>
<g>
<rect fill="LightGreen" stroke="Black" stroke-width="1.875" x="727.5" y="1188.75" width="90" height="52.5" rx="3.75" ry="3.75" />
<text x="735" y="1211.25">Arch.</text>
<text x="735" y="1230">Distortion</text>
</g>
</g>
<g>
<g>
<rect fill="LightGreen" stroke="Black" stroke-width="1.875" x="727.5" y="1248.75" width="112.5" height="33.75" rx="3.75" ry="3.75" />
<text x="735" y="1271.25">Calcification</text>
</g>
<line stroke="Black" stroke-width="1.875" marker-start="url(#arrowStart)" x1="840" y1="1265.625" x2="870" y2="1265.625" />
<line stroke="Black" stroke-width="1.875" marker-end="url(#arrowEnd)" x1="870" y1="1275" x2="900" y2="1275" />
<line stroke="Black" stroke-width="1.875" marker-end="url(#arrowEnd)" x1="870" y1="1335" x2="900" y2="1335" />
<line stroke="Black" stroke-width="1.875" marker-end="url(#arrowEnd)" x1="870" y1="1404.375" x2="900" y2="1404.375" />
<line stroke="Black" stroke-width="1.875" x1="870" y1="1265.625" x2="870" y2="1404.375" />
</g>
<g>
<g>
<rect fill="LightGreen" stroke="Black" stroke-width="1.875" x="900" y="1248.75" width="112.5" height="52.5" rx="3.75" ry="3.75" />
<text x="907.5" y="1271.25">Calcification</text>
<text x="907.5" y="1290">Type</text>
</g>
<g>
<rect fill="LightGreen" stroke="Black" stroke-width="1.875" x="900" y="1308.75" width="112.5" height="52.5" rx="3.75" ry="3.75" />
<text x="907.5" y="1331.25">Calcification</text>
<text x="907.5" y="1350">Distribution</text>
</g>
</g>
<g>
<g>
<rect fill="LightGreen" stroke="Black" stroke-width="1.875" x="900" y="1368.75" width="90" height="71.25" rx="3.75" ry="3.75" />
<text x="907.5" y="1391.25">Mammo</text>
<text x="907.5" y="1410">Associated</text>
<text x="907.5" y="1428.75">Features</text>
</g>
</g>
<g>
<g>
<rect fill="LightGreen" stroke="Black" stroke-width="1.875" x="450" y="1447.5" width="67.5" height="52.5" rx="3.75" ry="3.75" />
<text x="457.5" y="1470">MRI</text>
<text x="457.5" y="1488.75">Finding</text>
</g>
<g>
<rect fill="LightGreen" stroke="Black" stroke-width="1.875" x="450" y="1507.5" width="90" height="33.75" rx="3.75" ry="3.75" />
<text x="457.5" y="1530">UltraSound</text>
</g>
</g>
<g>
<g>
<rect fill="LightGreen" stroke="Black" stroke-width="1.875" x="150" y="1548.75" width="67.5" height="52.5" rx="3.75" ry="3.75" />
<text x="157.5" y="1571.25">Patient</text>
<text x="157.5" y="1590">Risk</text>
</g>
</g>
</svg>
