<?xml version="1.0"?>
<!DOCTYPE svg PUBLIC "-//W3C//DTD SVG 1.1//EN" "http://www.w3.org/Graphics/SVG/1.1/DTD/svg11.dtd">
<svg xmlns="http://www.w3.org/2000/svg" version="1.1" width="1380" height="3101.25">
<defs>
<marker id="arrowStart" markerWidth="3.75" markerHeight="3.75" markerUnits="px" refX="1.875" refY="1.875">
<circle fill="Black" stroke-width="0" cx="1.875" cy="1.875" r="1.875" />
</marker>
<marker id="arrowEnd" markerWidth="7.5" markerHeight="7.5" markerUnits="px" refX="7.5" refY="3.75">
<polygon fill="Black" stroke-width="0" points="0 0 7.5 3.75 0 7.5" />
</marker>
</defs>
<g>
<line stroke="Black" stroke-width="1.875" marker-end="url(#arrowEnd)" x1="60" y1="54.375" x2="90" y2="54.375" />
<line stroke="Black" stroke-width="1.875" x1="60" y1="54.375" x2="60" y2="54.375" />
</g>
<g>
<g>
<rect fill="LightGreen" stroke="Black" stroke-width="1.875" x="90" y="30" width="90" height="48.75" rx="15" ry="30" />
<text x="120" y="60">Report</text>
</g>
<line stroke="Black" stroke-width="1.875" marker-start="url(#arrowStart)" x1="180" y1="54.375" x2="210" y2="54.375" />
<line stroke="Black" stroke-width="1.875" marker-end="url(#arrowEnd)" x1="210" y1="54.375" x2="240" y2="54.375" />
<line stroke="Black" stroke-width="1.875" marker-end="url(#arrowEnd)" x1="210" y1="120" x2="240" y2="120" />
<line stroke="Black" stroke-width="1.875" marker-end="url(#arrowEnd)" x1="210" y1="204.375" x2="240" y2="204.375" />
<line stroke="Black" stroke-width="1.875" marker-end="url(#arrowEnd)" x1="210" y1="279.375" x2="240" y2="279.375" />
<line stroke="Black" stroke-width="1.875" marker-end="url(#arrowEnd)" x1="210" y1="3035.625" x2="240" y2="3035.625" />
<line stroke="Black" stroke-width="1.875" x1="210" y1="54.375" x2="210" y2="3035.625" />
</g>
<g>
<g>
<rect fill="LightGreen" stroke="Black" stroke-width="1.875" x="240" y="30" width="225" height="48.75" rx="15" ry="30" />
<text x="270" y="60">Recommendations</text>
</g>
</g>
<g>
<g>
<rect fill="LightGreen" stroke="Black" stroke-width="1.875" x="240" y="86.25" width="105" height="67.5" rx="15" ry="30" />
<text x="270" y="116.25">Prior</text>
<text x="270" y="135">Reports</text>
</g>
</g>
<g>
<g>
<rect fill="LightGreen" stroke="Black" stroke-width="1.875" x="240" y="161.25" width="105" height="86.25" rx="15" ry="30" />
<text x="270" y="191.25">Patient</text>
<text x="270" y="210">History</text>
<text x="270" y="228.75">Section</text>
</g>
</g>
<g>
<g>
<rect fill="LightGreen" stroke="Black" stroke-width="1.875" x="240" y="255" width="120" height="48.75" rx="15" ry="30" />
<text x="270" y="285">Findings</text>
</g>
<line stroke="Black" stroke-width="1.875" marker-start="url(#arrowStart)" x1="360" y1="279.375" x2="390" y2="279.375" />
<line stroke="Black" stroke-width="1.875" marker-end="url(#arrowEnd)" x1="390" y1="298.125" x2="420" y2="298.125" />
<line stroke="Black" stroke-width="1.875" marker-end="url(#arrowEnd)" x1="390" y1="1666.875" x2="420" y2="1666.875" />
<line stroke="Black" stroke-width="1.875" x1="390" y1="279.375" x2="390" y2="1666.875" />
</g>
<g>
<g>
<rect fill="LightGreen" stroke="Black" stroke-width="1.875" x="420" y="255" width="120" height="86.25" rx="15" ry="30" />
<text x="450" y="285">Findings</text>
<text x="450" y="303.75">Left</text>
<text x="450" y="322.5">Breast</text>
</g>
<line stroke="Black" stroke-width="1.875" marker-start="url(#arrowStart)" x1="540" y1="298.125" x2="570" y2="298.125" />
<line stroke="Black" stroke-width="1.875" marker-end="url(#arrowEnd)" x1="570" y1="288.75" x2="600" y2="288.75" />
<line stroke="Black" stroke-width="1.875" marker-end="url(#arrowEnd)" x1="570" y1="1507.5" x2="600" y2="1507.5" />
<line stroke="Black" stroke-width="1.875" marker-end="url(#arrowEnd)" x1="570" y1="1582.5" x2="600" y2="1582.5" />
<line stroke="Black" stroke-width="1.875" x1="570" y1="288.75" x2="570" y2="1582.5" />
</g>
<g>
<g>
<rect fill="LightGreen" stroke="Black" stroke-width="1.875" x="600" y="255" width="195" height="67.5" rx="15" ry="30" />
<text x="630" y="285">Abnormality</text>
<text x="630" y="303.75">(Mammography)</text>
</g>
<line stroke="Black" stroke-width="1.875" marker-start="url(#arrowStart)" x1="795" y1="288.75" x2="825" y2="288.75" />
<line stroke="Black" stroke-width="1.875" marker-end="url(#arrowEnd)" x1="825" y1="307.5" x2="855" y2="307.5" />
<line stroke="Black" stroke-width="1.875" marker-end="url(#arrowEnd)" x1="825" y1="410.625" x2="855" y2="410.625" />
<line stroke="Black" stroke-width="1.875" marker-end="url(#arrowEnd)" x1="825" y1="729.375" x2="855" y2="729.375" />
<line stroke="Black" stroke-width="1.875" marker-end="url(#arrowEnd)" x1="825" y1="963.75" x2="855" y2="963.75" />
<line stroke="Black" stroke-width="1.875" marker-end="url(#arrowEnd)" x1="825" y1="1066.875" x2="855" y2="1066.875" />
<line stroke="Black" stroke-width="1.875" marker-end="url(#arrowEnd)" x1="825" y1="1170" x2="855" y2="1170" />
<line stroke="Black" stroke-width="1.875" marker-end="url(#arrowEnd)" x1="825" y1="1282.5" x2="855" y2="1282.5" />
<line stroke="Black" stroke-width="1.875" marker-end="url(#arrowEnd)" x1="825" y1="1404.375" x2="855" y2="1404.375" />
<line stroke="Black" stroke-width="1.875" x1="825" y1="288.75" x2="825" y2="1404.375" />
</g>
<g>
<g>
<rect fill="LightGreen" stroke="Black" stroke-width="1.875" x="855" y="255" width="195" height="105" rx="15" ry="30" />
<text x="885" y="285">Abnormality</text>
<text x="885" y="303.75">Breast</text>
<text x="885" y="322.5">Density</text>
<text x="885" y="341.25">(Mammography)</text>
</g>
</g>
<g>
<g>
<rect fill="LightGreen" stroke="Black" stroke-width="1.875" x="855" y="367.5" width="165" height="86.25" rx="15" ry="30" />
<text x="885" y="397.5">Mammography</text>
<text x="885" y="416.25">Mass</text>
<text x="885" y="435">Observation</text>
</g>
<line stroke="Black" stroke-width="1.875" marker-start="url(#arrowStart)" x1="1020" y1="410.625" x2="1050" y2="410.625" />
<line stroke="Black" stroke-width="1.875" marker-end="url(#arrowEnd)" x1="1050" y1="410.625" x2="1080" y2="410.625" />
<line stroke="Black" stroke-width="1.875" marker-end="url(#arrowEnd)" x1="1050" y1="513.75" x2="1080" y2="513.75" />
<line stroke="Black" stroke-width="1.875" marker-end="url(#arrowEnd)" x1="1050" y1="626.25" x2="1080" y2="626.25" />
<line stroke="Black" stroke-width="1.875" x1="1050" y1="410.625" x2="1050" y2="626.25" />
</g>
<g>
<g>
<rect fill="LightGreen" stroke="Black" stroke-width="1.875" x="1080" y="367.5" width="165" height="86.25" rx="15" ry="30" />
<text x="1110" y="397.5">Abnormality</text>
<text x="1110" y="416.25">Mass</text>
<text x="1110" y="435">Shape</text>
</g>
</g>
<g>
<g>
<rect fill="LightGreen" stroke="Black" stroke-width="1.875" x="1080" y="461.25" width="195" height="105" rx="15" ry="30" />
<text x="1110" y="491.25">Abnormality</text>
<text x="1110" y="510">Mass</text>
<text x="1110" y="528.75">Margin</text>
<text x="1110" y="547.5">(Mammography)</text>
</g>
</g>
<g>
<g>
<rect fill="LightGreen" stroke="Black" stroke-width="1.875" x="1080" y="573.75" width="195" height="105" rx="15" ry="30" />
<text x="1110" y="603.75">Abnormality</text>
<text x="1110" y="622.5">Mass</text>
<text x="1110" y="641.25">Density</text>
<text x="1110" y="660">(Mammography)</text>
</g>
</g>
<g>
<g>
<rect fill="LightGreen" stroke="Black" stroke-width="1.875" x="855" y="686.25" width="210" height="86.25" rx="15" ry="30" />
<text x="885" y="716.25">Mammography</text>
<text x="885" y="735">Calcifications</text>
<text x="885" y="753.75">Observation</text>
</g>
<line stroke="Black" stroke-width="1.875" marker-start="url(#arrowStart)" x1="1065" y1="729.375" x2="1095" y2="729.375" />
<line stroke="Black" stroke-width="1.875" marker-end="url(#arrowEnd)" x1="1095" y1="738.75" x2="1125" y2="738.75" />
<line stroke="Black" stroke-width="1.875" marker-end="url(#arrowEnd)" x1="1095" y1="851.25" x2="1125" y2="851.25" />
<line stroke="Black" stroke-width="1.875" x1="1095" y1="729.375" x2="1095" y2="851.25" />
</g>
<g>
<g>
<rect fill="LightGreen" stroke="Black" stroke-width="1.875" x="1125" y="686.25" width="195" height="105" rx="15" ry="30" />
<text x="1155" y="716.25">Abnormality</text>
<text x="1155" y="735">Calcification</text>
<text x="1155" y="753.75">Type</text>
<text x="1155" y="772.5">(Mammography)</text>
</g>
</g>
<g>
<g>
<rect fill="LightGreen" stroke="Black" stroke-width="1.875" x="1125" y="798.75" width="195" height="105" rx="15" ry="30" />
<text x="1155" y="828.75">Abnormality</text>
<text x="1155" y="847.5">Calcification</text>
<text x="1155" y="866.25">Distribution</text>
<text x="1155" y="885">(Mammography)</text>
</g>
</g>
<g>
<g>
<rect fill="LightGreen" stroke="Black" stroke-width="1.875" x="855" y="911.25" width="195" height="105" rx="15" ry="30" />
<text x="885" y="941.25">Abnormality</text>
<text x="885" y="960">Architectural</text>
<text x="885" y="978.75">Distortion</text>
<text x="885" y="997.5">(Mammography)</text>
</g>
</g>
<g>
<g>
<rect fill="LightGreen" stroke="Black" stroke-width="1.875" x="855" y="1023.75" width="195" height="86.25" rx="15" ry="30" />
<text x="885" y="1053.75">Abnormality</text>
<text x="885" y="1072.5">Assymetries</text>
<text x="885" y="1091.25">(Mammography)</text>
</g>
</g>
<g>
<g>
<rect fill="LightGreen" stroke="Black" stroke-width="1.875" x="855" y="1117.5" width="195" height="105" rx="15" ry="30" />
<text x="885" y="1147.5">Abnormality</text>
<text x="885" y="1166.25">Intramammary</text>
<text x="885" y="1185">LymphNode</text>
<text x="885" y="1203.75">(Mammography)</text>
</g>
</g>
<g>
<g>
<rect fill="LightGreen" stroke="Black" stroke-width="1.875" x="855" y="1230" width="195" height="105" rx="15" ry="30" />
<text x="885" y="1260">Abnormality</text>
<text x="885" y="1278.75">Skin</text>
<text x="885" y="1297.5">Lesion</text>
<text x="885" y="1316.25">(Mammography)</text>
</g>
</g>
<g>
<g>
<rect fill="LightGreen" stroke="Black" stroke-width="1.875" x="855" y="1342.5" width="195" height="123.75" rx="15" ry="30" />
<text x="885" y="1372.5">Abnormality</text>
<text x="885" y="1391.25">Solitary</text>
<text x="885" y="1410">Dilated</text>
<text x="885" y="1428.75">Duct</text>
<text x="885" y="1447.5">(Mammography)</text>
</g>
</g>
<g>
<g>
<rect fill="LightGreen" stroke="Black" stroke-width="1.875" x="600" y="1473.75" width="165" height="67.5" rx="15" ry="30" />
<text x="630" y="1503.75">Abnormality</text>
<text x="630" y="1522.5">(MRI)</text>
</g>
</g>
<g>
<g>
<rect fill="LightGreen" stroke="Black" stroke-width="1.875" x="600" y="1548.75" width="180" height="67.5" rx="15" ry="30" />
<text x="630" y="1578.75">Abnormality</text>
<text x="630" y="1597.5">(UltraSound)</text>
</g>
</g>
<g>
<g>
<rect fill="LightGreen" stroke="Black" stroke-width="1.875" x="420" y="1623.75" width="120" height="86.25" rx="15" ry="30" />
<text x="450" y="1653.75">Findings</text>
<text x="450" y="1672.5">Right</text>
<text x="450" y="1691.25">Breast</text>
</g>
<line stroke="Black" stroke-width="1.875" marker-start="url(#arrowStart)" x1="540" y1="1666.875" x2="570" y2="1666.875" />
<line stroke="Black" stroke-width="1.875" marker-end="url(#arrowEnd)" x1="570" y1="1657.5" x2="600" y2="1657.5" />
<line stroke="Black" stroke-width="1.875" marker-end="url(#arrowEnd)" x1="570" y1="2876.25" x2="600" y2="2876.25" />
<line stroke="Black" stroke-width="1.875" marker-end="url(#arrowEnd)" x1="570" y1="2951.25" x2="600" y2="2951.25" />
<line stroke="Black" stroke-width="1.875" x1="570" y1="1657.5" x2="570" y2="2951.25" />
</g>
<g>
<g>
<rect fill="LightGreen" stroke="Black" stroke-width="1.875" x="600" y="1623.75" width="195" height="67.5" rx="15" ry="30" />
<text x="630" y="1653.75">Abnormality</text>
<text x="630" y="1672.5">(Mammography)</text>
</g>
<line stroke="Black" stroke-width="1.875" marker-start="url(#arrowStart)" x1="795" y1="1657.5" x2="825" y2="1657.5" />
<line stroke="Black" stroke-width="1.875" marker-end="url(#arrowEnd)" x1="825" y1="1676.25" x2="855" y2="1676.25" />
<line stroke="Black" stroke-width="1.875" marker-end="url(#arrowEnd)" x1="825" y1="1779.375" x2="855" y2="1779.375" />
<line stroke="Black" stroke-width="1.875" marker-end="url(#arrowEnd)" x1="825" y1="2098.125" x2="855" y2="2098.125" />
<line stroke="Black" stroke-width="1.875" marker-end="url(#arrowEnd)" x1="825" y1="2332.5" x2="855" y2="2332.5" />
<line stroke="Black" stroke-width="1.875" marker-end="url(#arrowEnd)" x1="825" y1="2435.625" x2="855" y2="2435.625" />
<line stroke="Black" stroke-width="1.875" marker-end="url(#arrowEnd)" x1="825" y1="2538.75" x2="855" y2="2538.75" />
<line stroke="Black" stroke-width="1.875" marker-end="url(#arrowEnd)" x1="825" y1="2651.25" x2="855" y2="2651.25" />
<line stroke="Black" stroke-width="1.875" marker-end="url(#arrowEnd)" x1="825" y1="2773.125" x2="855" y2="2773.125" />
<line stroke="Black" stroke-width="1.875" x1="825" y1="1657.5" x2="825" y2="2773.125" />
</g>
<g>
<g>
<rect fill="LightGreen" stroke="Black" stroke-width="1.875" x="855" y="1623.75" width="195" height="105" rx="15" ry="30" />
<text x="885" y="1653.75">Abnormality</text>
<text x="885" y="1672.5">Breast</text>
<text x="885" y="1691.25">Density</text>
<text x="885" y="1710">(Mammography)</text>
</g>
</g>
<g>
<g>
<rect fill="LightGreen" stroke="Black" stroke-width="1.875" x="855" y="1736.25" width="165" height="86.25" rx="15" ry="30" />
<text x="885" y="1766.25">Mammography</text>
<text x="885" y="1785">Mass</text>
<text x="885" y="1803.75">Observation</text>
</g>
<line stroke="Black" stroke-width="1.875" marker-start="url(#arrowStart)" x1="1020" y1="1779.375" x2="1050" y2="1779.375" />
<line stroke="Black" stroke-width="1.875" marker-end="url(#arrowEnd)" x1="1050" y1="1779.375" x2="1080" y2="1779.375" />
<line stroke="Black" stroke-width="1.875" marker-end="url(#arrowEnd)" x1="1050" y1="1882.5" x2="1080" y2="1882.5" />
<line stroke="Black" stroke-width="1.875" marker-end="url(#arrowEnd)" x1="1050" y1="1995" x2="1080" y2="1995" />
<line stroke="Black" stroke-width="1.875" x1="1050" y1="1779.375" x2="1050" y2="1995" />
</g>
<g>
<g>
<rect fill="LightGreen" stroke="Black" stroke-width="1.875" x="1080" y="1736.25" width="165" height="86.25" rx="15" ry="30" />
<text x="1110" y="1766.25">Abnormality</text>
<text x="1110" y="1785">Mass</text>
<text x="1110" y="1803.75">Shape</text>
</g>
</g>
<g>
<g>
<rect fill="LightGreen" stroke="Black" stroke-width="1.875" x="1080" y="1830" width="195" height="105" rx="15" ry="30" />
<text x="1110" y="1860">Abnormality</text>
<text x="1110" y="1878.75">Mass</text>
<text x="1110" y="1897.5">Margin</text>
<text x="1110" y="1916.25">(Mammography)</text>
</g>
</g>
<g>
<g>
<rect fill="LightGreen" stroke="Black" stroke-width="1.875" x="1080" y="1942.5" width="195" height="105" rx="15" ry="30" />
<text x="1110" y="1972.5">Abnormality</text>
<text x="1110" y="1991.25">Mass</text>
<text x="1110" y="2010">Density</text>
<text x="1110" y="2028.75">(Mammography)</text>
</g>
</g>
<g>
<g>
<rect fill="LightGreen" stroke="Black" stroke-width="1.875" x="855" y="2055" width="210" height="86.25" rx="15" ry="30" />
<text x="885" y="2085">Mammography</text>
<text x="885" y="2103.75">Calcifications</text>
<text x="885" y="2122.5">Observation</text>
</g>
<line stroke="Black" stroke-width="1.875" marker-start="url(#arrowStart)" x1="1065" y1="2098.125" x2="1095" y2="2098.125" />
<line stroke="Black" stroke-width="1.875" marker-end="url(#arrowEnd)" x1="1095" y1="2107.5" x2="1125" y2="2107.5" />
<line stroke="Black" stroke-width="1.875" marker-end="url(#arrowEnd)" x1="1095" y1="2220" x2="1125" y2="2220" />
<line stroke="Black" stroke-width="1.875" x1="1095" y1="2098.125" x2="1095" y2="2220" />
</g>
<g>
<g>
<rect fill="LightGreen" stroke="Black" stroke-width="1.875" x="1125" y="2055" width="195" height="105" rx="15" ry="30" />
<text x="1155" y="2085">Abnormality</text>
<text x="1155" y="2103.75">Calcification</text>
<text x="1155" y="2122.5">Type</text>
<text x="1155" y="2141.25">(Mammography)</text>
</g>
</g>
<g>
<g>
<rect fill="LightGreen" stroke="Black" stroke-width="1.875" x="1125" y="2167.5" width="195" height="105" rx="15" ry="30" />
<text x="1155" y="2197.5">Abnormality</text>
<text x="1155" y="2216.25">Calcification</text>
<text x="1155" y="2235">Distribution</text>
<text x="1155" y="2253.75">(Mammography)</text>
</g>
</g>
<g>
<g>
<rect fill="LightGreen" stroke="Black" stroke-width="1.875" x="855" y="2280" width="195" height="105" rx="15" ry="30" />
<text x="885" y="2310">Abnormality</text>
<text x="885" y="2328.75">Architectural</text>
<text x="885" y="2347.5">Distortion</text>
<text x="885" y="2366.25">(Mammography)</text>
</g>
</g>
<g>
<g>
<rect fill="LightGreen" stroke="Black" stroke-width="1.875" x="855" y="2392.5" width="195" height="86.25" rx="15" ry="30" />
<text x="885" y="2422.5">Abnormality</text>
<text x="885" y="2441.25">Assymetries</text>
<text x="885" y="2460">(Mammography)</text>
</g>
</g>
<g>
<g>
<rect fill="LightGreen" stroke="Black" stroke-width="1.875" x="855" y="2486.25" width="195" height="105" rx="15" ry="30" />
<text x="885" y="2516.25">Abnormality</text>
<text x="885" y="2535">Intramammary</text>
<text x="885" y="2553.75">LymphNode</text>
<text x="885" y="2572.5">(Mammography)</text>
</g>
</g>
<g>
<g>
<rect fill="LightGreen" stroke="Black" stroke-width="1.875" x="855" y="2598.75" width="195" height="105" rx="15" ry="30" />
<text x="885" y="2628.75">Abnormality</text>
<text x="885" y="2647.5">Skin</text>
<text x="885" y="2666.25">Lesion</text>
<text x="885" y="2685">(Mammography)</text>
</g>
</g>
<g>
<g>
<rect fill="LightGreen" stroke="Black" stroke-width="1.875" x="855" y="2711.25" width="195" height="123.75" rx="15" ry="30" />
<text x="885" y="2741.25">Abnormality</text>
<text x="885" y="2760">Solitary</text>
<text x="885" y="2778.75">Dilated</text>
<text x="885" y="2797.5">Duct</text>
<text x="885" y="2816.25">(Mammography)</text>
</g>
</g>
<g>
<g>
<rect fill="LightGreen" stroke="Black" stroke-width="1.875" x="600" y="2842.5" width="165" height="67.5" rx="15" ry="30" />
<text x="630" y="2872.5">Abnormality</text>
<text x="630" y="2891.25">(MRI)</text>
</g>
</g>
<g>
<g>
<rect fill="LightGreen" stroke="Black" stroke-width="1.875" x="600" y="2917.5" width="180" height="67.5" rx="15" ry="30" />
<text x="630" y="2947.5">Abnormality</text>
<text x="630" y="2966.25">(UltraSound)</text>
</g>
</g>
<g>
<g>
<rect fill="LightGreen" stroke="Black" stroke-width="1.875" x="240" y="2992.5" width="105" height="86.25" rx="15" ry="30" />
<text x="270" y="3022.5">Patient</text>
<text x="270" y="3041.25">Risk</text>
<text x="270" y="3060">Section</text>
</g>
</g>
</svg>
