<?xml version="1.0"?>
<!DOCTYPE svg PUBLIC "-//W3C//DTD SVG 1.1//EN" "http://www.w3.org/Graphics/SVG/1.1/DTD/svg11.dtd">
<svg xmlns="http://www.w3.org/2000/svg" version="1.1" width="720" height="626.25">
<defs>
<marker id="arrowStart" markerWidth="3.75" markerHeight="3.75" markerUnits="px" refX="1.875" refY="1.875">
<circle fill="Black" stroke-width="0" cx="1.875" cy="1.875" r="1.875" />
</marker>
<marker id="arrowEnd" markerWidth="7.5" markerHeight="7.5" markerUnits="px" refX="7.5" refY="3.75">
<polygon fill="Black" stroke-width="0" points="0 0 7.5 3.75 0 7.5" />
</marker>
</defs>
<g>
<g>
<a href="Overview.svg">
<rect fill="LightGreen" stroke="Black" stroke-width="1.875" x="30" y="30" width="120" height="86.25" rx="15" ry="30" />
</a>
<text x="60" y="60">Findings</text>
<text x="60" y="78.75">Right Breast</text>
<text x="60" y="97.5">Section</text>
</g>
<line stroke="Black" stroke-width="1.875" marker-start="url(#arrowStart)" x1="150" y1="73.125" x2="180" y2="73.125" />
<line stroke="Black" stroke-width="1.875" marker-end="url(#arrowEnd)" x1="180" y1="73.125" x2="210" y2="73.125" />
<line stroke="Black" stroke-width="1.875" marker-end="url(#arrowEnd)" x1="180" y1="466.875" x2="210" y2="466.875" />
<line stroke="Black" stroke-width="1.875" marker-end="url(#arrowEnd)" x1="180" y1="560.625" x2="210" y2="560.625" />
<line stroke="Black" stroke-width="1.875" x1="180" y1="73.125" x2="180" y2="560.625" />
</g>
<g>
<g>
<rect fill="LightBlue" stroke="Black" stroke-width="1.875" x="210" y="30" width="180" height="86.25" rx="15" ry="30" />
<text x="240" y="60">Mammography</text>
<text x="240" y="78.75">Abnormality</text>
<text x="240" y="97.5">Observation</text>
</g>
<line stroke="Black" stroke-width="1.875" marker-start="url(#arrowStart)" x1="390" y1="73.125" x2="420" y2="73.125" />
<line stroke="Black" stroke-width="1.875" marker-end="url(#arrowEnd)" x1="420" y1="54.375" x2="450" y2="54.375" />
<line stroke="Black" stroke-width="1.875" marker-end="url(#arrowEnd)" x1="420" y1="110.625" x2="450" y2="110.625" />
<line stroke="Black" stroke-width="1.875" marker-end="url(#arrowEnd)" x1="420" y1="166.875" x2="450" y2="166.875" />
<line stroke="Black" stroke-width="1.875" marker-end="url(#arrowEnd)" x1="420" y1="223.125" x2="450" y2="223.125" />
<line stroke="Black" stroke-width="1.875" marker-end="url(#arrowEnd)" x1="420" y1="279.375" x2="450" y2="279.375" />
<line stroke="Black" stroke-width="1.875" marker-end="url(#arrowEnd)" x1="420" y1="335.625" x2="450" y2="335.625" />
<line stroke="Black" stroke-width="1.875" marker-end="url(#arrowEnd)" x1="420" y1="391.875" x2="450" y2="391.875" />
<line stroke="Black" stroke-width="1.875" x1="420" y1="54.375" x2="420" y2="391.875" />
</g>
<g>
<g>
<rect fill="LightBlue" stroke="Black" stroke-width="1.875" x="450" y="30" width="210" height="48.75" rx="15" ry="30" />
<text x="480" y="60">Mammo Breast Density</text>
</g>
<g>
<rect fill="LightBlue" stroke="Black" stroke-width="1.875" x="450" y="86.25" width="210" height="48.75" rx="15" ry="30" />
<text x="480" y="116.25">Mammo Mass</text>
</g>
<g>
<rect fill="LightBlue" stroke="Black" stroke-width="1.875" x="450" y="142.5" width="210" height="48.75" rx="15" ry="30" />
<text x="480" y="172.5">Mammo Calcification</text>
</g>
<g>
<rect fill="LightBlue" stroke="Black" stroke-width="1.875" x="450" y="198.75" width="210" height="48.75" rx="15" ry="30" />
<text x="480" y="228.75">Mammo Architectural Distortion</text>
</g>
<g>
<rect fill="LightBlue" stroke="Black" stroke-width="1.875" x="450" y="255" width="210" height="48.75" rx="15" ry="30" />
<text x="480" y="285">Intramammary Lymph Node</text>
</g>
<g>
<rect fill="LightBlue" stroke="Black" stroke-width="1.875" x="450" y="311.25" width="210" height="48.75" rx="15" ry="30" />
<text x="480" y="341.25">Skin Lesion</text>
</g>
<g>
<rect fill="LightBlue" stroke="Black" stroke-width="1.875" x="450" y="367.5" width="210" height="48.75" rx="15" ry="30" />
<text x="480" y="397.5">Solitary Dilated Duct</text>
</g>
</g>
<g>
<g>
<rect fill="LightBlue" stroke="Black" stroke-width="1.875" x="210" y="423.75" width="180" height="86.25" rx="15" ry="30" />
<text x="240" y="453.75">MRI</text>
<text x="240" y="472.5">Abnormality</text>
<text x="240" y="491.25">Observation</text>
</g>
<line stroke="Black" stroke-width="1.875" marker-start="url(#arrowStart)" x1="390" y1="466.875" x2="420" y2="466.875" />
<line stroke="Black" stroke-width="1.875" x1="420" y1="466.875" x2="420" y2="466.875" />
</g>
<g />
<g>
<g>
<rect fill="LightBlue" stroke="Black" stroke-width="1.875" x="210" y="517.5" width="180" height="86.25" rx="15" ry="30" />
<text x="240" y="547.5">UltraSound</text>
<text x="240" y="566.25">Abnormality</text>
<text x="240" y="585">Observation</text>
</g>
<line stroke="Black" stroke-width="1.875" marker-start="url(#arrowStart)" x1="390" y1="560.625" x2="420" y2="560.625" />
<line stroke="Black" stroke-width="1.875" x1="420" y1="560.625" x2="420" y2="560.625" />
</g>
<g />
</svg>
