<?xml version="1.0"?>
<!DOCTYPE svg PUBLIC "-//W3C//DTD SVG 1.1//EN" "http://www.w3.org/Graphics/SVG/1.1/DTD/svg11.dtd">
<svg xmlns="http://www.w3.org/2000/svg" version="1.1" width="690" height="495">
<defs>
<marker id="arrowStart" markerWidth="3.75" markerHeight="3.75" markerUnits="px" refX="1.875" refY="1.875">
<circle fill="Black" stroke-width="0" cx="1.875" cy="1.875" r="1.875" />
</marker>
<marker id="arrowEnd" markerWidth="7.5" markerHeight="7.5" markerUnits="px" refX="7.5" refY="3.75">
<polygon fill="Black" stroke-width="0" points="0 0 7.5 3.75 0 7.5" />
</marker>
</defs>
<g>
<g>
<rect fill="LightGreen" stroke="Black" stroke-width="1.875" x="30" y="30" width="120" height="86.25" rx="15" ry="30" />
<text x="60" y="60">Breast</text>
<text x="60" y="78.75">Radiology</text>
<text x="60" y="97.5">Report</text>
</g>
<line stroke="Black" stroke-width="1.875" marker-start="url(#arrowStart)" x1="150" y1="73.125" x2="180" y2="73.125" />
<line stroke="Black" stroke-width="1.875" marker-end="url(#arrowEnd)" x1="180" y1="63.75" x2="210" y2="63.75" />
<line stroke="Black" stroke-width="1.875" marker-end="url(#arrowEnd)" x1="180" y1="251.25" x2="210" y2="251.25" />
<line stroke="Black" stroke-width="1.875" marker-end="url(#arrowEnd)" x1="180" y1="326.25" x2="210" y2="326.25" />
<line stroke="Black" stroke-width="1.875" marker-end="url(#arrowEnd)" x1="180" y1="391.875" x2="210" y2="391.875" />
<line stroke="Black" stroke-width="1.875" marker-end="url(#arrowEnd)" x1="180" y1="448.125" x2="210" y2="448.125" />
<line stroke="Black" stroke-width="1.875" x1="180" y1="63.75" x2="180" y2="448.125" />
</g>
<g>
<g>
<rect fill="LightBlue" stroke="Black" stroke-width="1.875" x="210" y="30" width="180" height="67.5" rx="15" ry="30" />
<text x="240" y="60">Findings</text>
<text x="240" y="78.75">Section</text>
</g>
<line stroke="Black" stroke-width="1.875" marker-start="url(#arrowStart)" x1="390" y1="63.75" x2="420" y2="63.75" />
<line stroke="Black" stroke-width="1.875" marker-end="url(#arrowEnd)" x1="420" y1="73.125" x2="450" y2="73.125" />
<line stroke="Black" stroke-width="1.875" marker-end="url(#arrowEnd)" x1="420" y1="166.875" x2="450" y2="166.875" />
<line stroke="Black" stroke-width="1.875" x1="420" y1="63.75" x2="420" y2="166.875" />
</g>
<g>
<g>
<a href="FindingsRightBreast.svg">
<rect fill="LightBlue" stroke="Black" stroke-width="1.875" x="450" y="30" width="180" height="86.25" rx="15" ry="30" />
</a>
<text x="480" y="60">Findings</text>
<text x="480" y="78.75">Right Breast</text>
<text x="480" y="97.5">Section</text>
</g>
<g>
<a href="FindingsLeftBreast.svg">
<rect fill="LightBlue" stroke="Black" stroke-width="1.875" x="450" y="123.75" width="180" height="86.25" rx="15" ry="30" />
</a>
<text x="480" y="153.75">Findings</text>
<text x="480" y="172.5">Left Breast</text>
<text x="480" y="191.25">Section</text>
</g>
</g>
<g />
<g>
<g>
<rect fill="Coral" stroke="Black" stroke-width="1.875" x="210" y="217.5" width="180" height="67.5" rx="15" ry="30" />
<text x="240" y="247.5">Impressions</text>
<text x="240" y="266.25">Section</text>
</g>
</g>
<g>
<g>
<rect fill="Coral" stroke="Black" stroke-width="1.875" x="210" y="292.5" width="180" height="67.5" rx="15" ry="30" />
<text x="240" y="322.5">Recommendations</text>
<text x="240" y="341.25">Section</text>
</g>
</g>
<g>
<g>
<rect fill="Coral" stroke="Black" stroke-width="1.875" x="210" y="367.5" width="180" height="48.75" rx="15" ry="30" />
<text x="240" y="397.5">Patient Risk Section</text>
</g>
</g>
<g>
<g>
<rect fill="Coral" stroke="Black" stroke-width="1.875" x="210" y="423.75" width="180" height="48.75" rx="15" ry="30" />
<text x="240" y="453.75">Prior Studies</text>
</g>
</g>
</svg>
