<?xml version="1.0"?>
<!DOCTYPE svg PUBLIC "-//W3C//DTD SVG 1.1//EN" "http://www.w3.org/Graphics/SVG/1.1/DTD/svg11.dtd">
<svg xmlns="http://www.w3.org/2000/svg" version="1.1" width="610.49994" height="236.25">
<defs>
<marker id="arrowStart" markerWidth="3.75" markerHeight="3.75" markerUnits="px" refX="1.875" refY="1.875">
<circle fill="Black" stroke-width="0" cx="1.875" cy="1.875" r="1.875" />
</marker>
<marker id="arrowEnd" markerWidth="7.5" markerHeight="7.5" markerUnits="px" refX="7.5" refY="3.75">
<polygon fill="Black" stroke-width="0" points="0 0 7.5 3.75 0 7.5" />
</marker>
</defs>
<g>
<g>
<rect fill="LightBlue" stroke="Black" stroke-width="1.875" x="7.5" y="7.5" width="67.5" height="52.5" rx="3.75" ry="3.75" />
<a href="./StructureDefinition-BreastRadMammoMass.html" target="_blank">
<title>'BreastRadMammoMass'</title>
<text x="15" y="30">Mammo</text>
</a>
<a href="./StructureDefinition-BreastRadMammoMass.html" target="_blank">
<title>'BreastRadMammoMass'</title>
<text x="15" y="48.75">Mass</text>
</a>
</g>
<g>
<rect fill="LightBlue" stroke="Black" stroke-width="1.875" x="7.5" y="67.5" width="57" height="52.5" rx="3.75" ry="3.75" />
<a href="./StructureDefinition-BreastRadMRIMass.html" target="_blank">
<title>'BreastRadMRIMass'</title>
<text x="15" y="90">MRI</text>
</a>
<a href="./StructureDefinition-BreastRadMRIMass.html" target="_blank">
<title>'BreastRadMRIMass'</title>
<text x="15" y="108.75">Mass</text>
</a>
</g>
<g>
<rect fill="LightBlue" stroke="Black" stroke-width="1.875" x="7.5" y="127.5" width="57" height="52.5" rx="3.75" ry="3.75" />
<a href="./StructureDefinition-BreastRadNMMass.html" target="_blank">
<title>'BreastRadNMMass'</title>
<text x="15" y="150">NM</text>
</a>
<a href="./StructureDefinition-BreastRadNMMass.html" target="_blank">
<title>'BreastRadNMMass'</title>
<text x="15" y="168.75">Mass</text>
</a>
</g>
<g>
<rect fill="LightBlue" stroke="Black" stroke-width="1.875" x="7.5" y="187.5" width="88.5" height="33.75" rx="3.75" ry="3.75" />
<a href="./StructureDefinition-BreastRadUSMass.html" target="_blank">
<title>'BreastRadUSMass'</title>
<text x="15" y="210">US Mass</text>
</a>
</g>
<line stroke="Black" stroke-width="1.875" marker-end="url(#arrowEnd)" x1="125.99999" y1="24.375" x2="156" y2="24.375" />
<line stroke="Black" stroke-width="1.875" marker-start="url(#arrowStart)" x1="75" y1="33.75" x2="125.99999" y2="33.75" />
<line stroke="Black" stroke-width="1.875" marker-start="url(#arrowStart)" x1="64.5" y1="93.75" x2="125.99999" y2="93.75" />
<line stroke="Black" stroke-width="1.875" marker-start="url(#arrowStart)" x1="64.5" y1="153.75" x2="125.99999" y2="153.75" />
<line stroke="Black" stroke-width="1.875" marker-start="url(#arrowStart)" x1="96" y1="204.375" x2="125.99999" y2="204.375" />
<line stroke="Black" stroke-width="1.875" x1="125.99999" y1="24.375" x2="125.99999" y2="204.375" />
</g>
<g>
<g>
<rect fill="LightGreen" stroke="Black" stroke-width="1.875" x="156" y="7.5" width="130.5" height="33.75" rx="3.75" ry="3.75" />
<text x="163.5" y="30">Orientation</text>
</g>
<line stroke="Black" stroke-width="1.875" marker-end="url(#arrowEnd)" x1="316.49997" y1="24.375" x2="346.49997" y2="24.375" />
<line stroke="Black" stroke-width="1.875" marker-start="url(#arrowStart)" x1="286.49997" y1="24.375" x2="316.49997" y2="24.375" />
<line stroke="Black" stroke-width="1.875" x1="316.49997" y1="24.375" x2="316.49997" y2="24.375" />
</g>
<g>
<g>
<rect fill="LightSalmon" stroke="Black" stroke-width="1.875" x="346.49997" y="7.5" width="203.99998" height="33.75" rx="3.75" ry="3.75" />
<a href="./ValueSet-CommonOrientationVS.html" target="_blank">
<title>'CommonOrientationVS'</title>
<text x="353.99997" y="30">Orientation Values</text>
</a>
</g>
</g>
</svg>
