<?xml version="1.0"?>
<!DOCTYPE svg PUBLIC "-//W3C//DTD SVG 1.1//EN" "http://www.w3.org/Graphics/SVG/1.1/DTD/svg11.dtd">
<svg xmlns="http://www.w3.org/2000/svg" version="1.1" width="432.00003" height="345">
<defs>
<marker id="arrowStart" markerWidth="3.75" markerHeight="3.75" markerUnits="px" refX="1.875" refY="1.875">
<circle fill="Black" stroke-width="0" cx="1.875" cy="1.875" r="1.875" />
</marker>
<marker id="arrowEnd" markerWidth="7.5" markerHeight="7.5" markerUnits="px" refX="7.5" refY="3.75">
<polygon fill="Black" stroke-width="0" points="0 0 7.5 3.75 0 7.5" />
</marker>
</defs>
<g>
<g>
<rect fill="LightBlue" stroke="Black" stroke-width="1.875" x="7.5" y="7.5" width="88.5" height="52.5" rx="3.75" ry="3.75" />
<a href="./StructureDefinition-BreastRadNMFinding.html" target="_blank">
<title>'BreastRadNMFinding'</title>
<text x="15" y="30">NM</text>
</a>
<a href="./StructureDefinition-BreastRadNMFinding.html" target="_blank">
<title>'BreastRadNMFinding'</title>
<text x="15" y="48.75">Finding</text>
</a>
</g>
<line stroke="Black" stroke-width="1.875" marker-end="url(#arrowEnd)" x1="125.99999" y1="33.75" x2="156" y2="33.75" />
<line stroke="Black" stroke-width="1.875" marker-start="url(#arrowStart)" x1="96" y1="33.75" x2="125.99999" y2="33.75" />
<line stroke="Black" stroke-width="1.875" x1="125.99999" y1="33.75" x2="125.99999" y2="33.75" />
</g>
<g>
<g>
<rect fill="LightGreen" stroke="Black" stroke-width="1.875" x="156" y="7.5" width="57" height="52.5" rx="3.75" ry="3.75" />
<text x="163.5" y="30">NM</text>
<text x="163.5" y="48.75">Mass</text>
</g>
<line stroke="Black" stroke-width="1.875" marker-end="url(#arrowEnd)" x1="243.00002" y1="24.375" x2="273" y2="24.375" />
<line stroke="Black" stroke-width="1.875" marker-end="url(#arrowEnd)" x1="243.00002" y1="65.625" x2="273" y2="65.625" />
<line stroke="Black" stroke-width="1.875" marker-end="url(#arrowEnd)" x1="243.00002" y1="125.625" x2="273" y2="125.625" />
<line stroke="Black" stroke-width="1.875" marker-end="url(#arrowEnd)" x1="243.00002" y1="185.625" x2="273" y2="185.625" />
<line stroke="Black" stroke-width="1.875" marker-end="url(#arrowEnd)" x1="243.00002" y1="226.875" x2="273" y2="226.875" />
<line stroke="Black" stroke-width="1.875" marker-end="url(#arrowEnd)" x1="243.00002" y1="286.875" x2="273" y2="286.875" />
<line stroke="Black" stroke-width="1.875" marker-start="url(#arrowStart)" x1="213" y1="33.75" x2="243.00002" y2="33.75" />
<line stroke="Black" stroke-width="1.875" x1="243.00002" y1="24.375" x2="243.00002" y2="286.875" />
</g>
<g>
<g>
<rect fill="LightSalmon" stroke="Black" stroke-width="1.875" x="273" y="7.5" width="57" height="33.75" rx="3.75" ry="3.75" />
<a href="./StructureDefinition-BreastRadSize.html" target="_blank">
<title>'BreastRadSize'</title>
<text x="280.5" y="30">Size</text>
</a>
</g>
<g>
<rect fill="LightSalmon" stroke="Black" stroke-width="1.875" x="273" y="48.75" width="67.5" height="33.75" rx="3.75" ry="3.75" />
<a href="./StructureDefinition-BreastRadCount.html" target="_blank">
<title>'BreastRadCount'</title>
<text x="280.5" y="71.25">Count</text>
</a>
</g>
<g>
<rect fill="LightSalmon" stroke="Black" stroke-width="1.875" x="273" y="90" width="78" height="71.25" rx="3.75" ry="3.75" />
<a href="./StructureDefinition-BreastRadNMMassMargin.html" target="_blank">
<title>'BreastRadNMMassMargin'</title>
<text x="280.5" y="112.5">NM</text>
</a>
<a href="./StructureDefinition-BreastRadNMMassMargin.html" target="_blank">
<title>'BreastRadNMMassMargin'</title>
<text x="280.5" y="131.25">Mass</text>
</a>
<a href="./StructureDefinition-BreastRadNMMassMargin.html" target="_blank">
<title>'BreastRadNMMassMargin'</title>
<text x="280.5" y="150">Margin</text>
</a>
</g>
<g>
<rect fill="LightSalmon" stroke="Black" stroke-width="1.875" x="273" y="168.75" width="88.5" height="33.75" rx="3.75" ry="3.75" />
<a href="./StructureDefinition-BreastRadObservedChanges.html" target="_blank">
<title>'BreastRadObservedChanges'</title>
<text x="280.5" y="191.25">Changes</text>
</a>
</g>
<g>
<rect fill="LightSalmon" stroke="Black" stroke-width="1.875" x="273" y="210" width="67.5" height="33.75" rx="3.75" ry="3.75" />
<a href="./StructureDefinition-BreastRadObservedState.html" target="_blank">
<title>'BreastRadObservedState'</title>
<text x="280.5" y="232.5">State</text>
</a>
</g>
<g>
<rect fill="LightSalmon" stroke="Black" stroke-width="1.875" x="273" y="251.25" width="99" height="71.25" rx="3.75" ry="3.75" />
<a href="./StructureDefinition-BreastBodyLocation.html" target="_blank">
<title>'BreastBodyLocation'</title>
<text x="280.5" y="273.75">Breast</text>
</a>
<a href="./StructureDefinition-BreastBodyLocation.html" target="_blank">
<title>'BreastBodyLocation'</title>
<text x="280.5" y="292.5">Body</text>
</a>
<a href="./StructureDefinition-BreastBodyLocation.html" target="_blank">
<title>'BreastBodyLocation'</title>
<text x="280.5" y="311.25">Location</text>
</a>
</g>
</g>
</svg>
