<?xml version="1.0"?>
<!DOCTYPE svg PUBLIC "-//W3C//DTD SVG 1.1//EN" "http://www.w3.org/Graphics/SVG/1.1/DTD/svg11.dtd">
<svg xmlns="http://www.w3.org/2000/svg" version="1.1" width="390" height="101.25">
<defs>
<marker id="arrowStart" markerWidth="3.75" markerHeight="3.75" markerUnits="px" refX="1.875" refY="1.875">
<circle fill="Black" stroke-width="0" cx="1.875" cy="1.875" r="1.875" />
</marker>
<marker id="arrowEnd" markerWidth="7.5" markerHeight="7.5" markerUnits="px" refX="7.5" refY="3.75">
<polygon fill="Black" stroke-width="0" points="0 0 7.5 3.75 0 7.5" />
</marker>
</defs>
<g>
<g>
<rect fill="LightBlue" stroke="Black" stroke-width="1.875" x="7.5" y="7.5" width="57" height="33.75" rx="3.75" ry="3.75" />
<a href="./StructureDefinition-BreastRadMammoMass.html" target="_blank">
<title>'BreastRadMammoMass'</title>
<text x="15" y="30">Mass</text>
</a>
</g>
<g>
<rect fill="LightBlue" stroke="Black" stroke-width="1.875" x="7.5" y="48.75" width="57" height="33.75" rx="3.75" ry="3.75" />
<a href="./StructureDefinition-BreastRadUSMass.html" target="_blank">
<title>'BreastRadUSMass'</title>
<text x="15" y="71.25">Mass</text>
</a>
</g>
<line stroke="Black" stroke-width="1.875" marker-end="url(#arrowEnd)" x1="94.5" y1="24.375" x2="124.5" y2="24.375" />
<line stroke="Black" stroke-width="1.875" marker-start="url(#arrowStart)" x1="64.5" y1="24.375" x2="94.5" y2="24.375" />
<line stroke="Black" stroke-width="1.875" marker-start="url(#arrowStart)" x1="64.5" y1="65.625" x2="94.5" y2="65.625" />
<line stroke="Black" stroke-width="1.875" x1="94.5" y1="24.375" x2="94.5" y2="65.625" />
</g>
<g>
<g>
<rect fill="LightGreen" stroke="Black" stroke-width="1.875" x="124.5" y="7.5" width="67.5" height="33.75" rx="3.75" ry="3.75" />
<text x="132" y="30">Shape</text>
</g>
<line stroke="Black" stroke-width="1.875" marker-end="url(#arrowEnd)" x1="222" y1="43.125" x2="251.99998" y2="43.125" />
<line stroke="Black" stroke-width="1.875" marker-start="url(#arrowStart)" x1="192" y1="24.375" x2="222" y2="24.375" />
<line stroke="Black" stroke-width="1.875" x1="222" y1="24.375" x2="222" y2="43.125" />
</g>
<g>
<g>
<rect fill="LightSalmon" stroke="Black" stroke-width="1.875" x="251.99998" y="7.5" width="78" height="71.25" rx="3.75" ry="3.75" />
<a href="./StructureDefinition-BreastRadMassShapeVS.html" target="_blank">
<title>'BreastRadMassShapeVS'</title>
<text x="259.5" y="30">Mass</text>
</a>
<a href="./StructureDefinition-BreastRadMassShapeVS.html" target="_blank">
<title>'BreastRadMassShapeVS'</title>
<text x="259.5" y="48.75">Shape</text>
</a>
<a href="./StructureDefinition-BreastRadMassShapeVS.html" target="_blank">
<title>'BreastRadMassShapeVS'</title>
<text x="259.5" y="67.5">Values</text>
</a>
</g>
</g>
</svg>
